<?xml version="1.0" encoding="utf-8"?>
<!-- Generator: Adobe Illustrator 21.0.2, SVG Export Plug-In . SVG Version: 6.00 Build 0)  -->
<svg version="1.1" baseProfile="tiny" id="Layer_1" xmlns="http://www.w3.org/2000/svg" xmlns:xlink="http://www.w3.org/1999/xlink"
	 x="0px" y="0px" viewBox="0 0 870.2 151.4" xml:space="preserve">
<g>
	<path fill-rule="evenodd" fill="#00E0C3" d="M32.6,28.9v10.4h18.3v16.4H32.6v62.6H13.7V55.6H0V39.2h13.7V28.4
		C13.7,10.7,25,0,41.2,0c4.7,0,8.6,1,9.9,1.6v16.1c-1.1-0.3-3.2-0.8-6.8-0.8C39.3,16.9,32.6,19.1,32.6,28.9"/>
	<path fill-rule="evenodd" fill="#00E0C3" d="M96.5,120.3c-23.1,0-38-18.3-38-42c0-22.9,15-41.3,37.7-41.3c13.9,0,21,7.3,23.1,12.6
		V39.2h18.3v64.5c0,6.5,0.6,12.8,0.8,14.4h-17.9c-0.3-1.8-0.8-6-0.8-11.4C116,114.5,107.8,120.3,96.5,120.3 M98.6,104.1
		c12.3,0,20.8-10.5,20.8-25.8c0-15.2-8.4-25-20.8-25c-12.6,0-21.3,9.7-21.3,25C77.2,93.4,85.5,104.1,98.6,104.1"/>
	<path fill-rule="evenodd" fill="#00E0C3" d="M180.2,118.2h-18.7v-79h18.3v10.5C184.9,40.7,194.2,37,203,37
		c19.2,0,28.4,13.9,28.4,31.3v49.9h-18.7V71.5c0-9.7-4.4-17.5-16.2-17.5c-10.7,0-16.3,8.3-16.3,18.6V118.2z"/>
</g>
<g>
	<path fill-rule="evenodd" fill="#1C74A5" d="M347.3,78.6c0,15.9,10.2,24.8,22,24.8c12.3,0,17.9-8.6,19.7-14.6l16.5,6
		c-3.7,12.3-15.5,25.8-36.2,25.8c-23.1,0-40.7-18-40.7-42c0-24.3,17.6-41.8,40.2-41.8c21.2,0,32.8,13.3,36,25.9L388,68.9
		c-1.8-7-7.1-14.8-19.1-14.8C357.5,54.2,347.3,62.7,347.3,78.6"/>
	<path fill-rule="evenodd" fill="#1C74A5" d="M440.8,118.2h-18.7V0.8h18.7v46c5.3-7,14.2-9.9,22.5-9.9c19.4,0,28.8,13.9,28.8,31.3
		v49.9h-18.7V71.5c0-9.7-4.4-17.5-16.2-17.5c-10.3,0-16,7.8-16.3,17.8V118.2z"/>
	<path fill-rule="evenodd" fill="#1C74A5" d="M546.7,120.3c-23.1,0-38-18.3-38-42c0-22.9,15-41.3,37.7-41.3c13.9,0,21,7.3,23.1,12.6
		V39.2h18.3v64.5c0,6.5,0.6,12.8,0.8,14.4h-17.9c-0.3-1.8-0.8-6-0.8-11.4C566.2,114.5,558,120.3,546.7,120.3 M548.8,104.1
		c12.3,0,20.8-10.5,20.8-25.8c0-15.2-8.4-25-20.8-25c-12.6,0-21.3,9.7-21.3,25C527.5,93.4,535.7,104.1,548.8,104.1"/>
	<path fill-rule="evenodd" fill="#1C74A5" d="M630.4,118.2h-18.7v-79h18.3v10.5c5.2-9.1,14.5-12.8,23.3-12.8
		c19.2,0,28.4,13.9,28.4,31.3v49.9h-18.7V71.5c0-9.7-4.4-17.5-16.2-17.5c-10.7,0-16.3,8.3-16.3,18.6V118.2z"/>
	<path fill-rule="evenodd" fill="#1C74A5" d="M716,118c1.3,9.7,8.9,17,19.7,17c14.9,0,22.3-7.6,22.3-23.7v-8.3
		c-3.4,6.2-11.3,11.5-22.8,11.5c-21,0-36.4-16.2-36.4-38.4c0-21.1,14.7-38.4,36.4-38.4c12.3,0,19.9,5,23.3,11.5V39.2h18.1v71.5
		c0,21.1-10.8,40.7-40.4,40.7c-20.8,0-35.4-13-37.5-28.9L716,118z M758.6,76.2c0-13.5-8.6-22.2-20.2-22.2c-12,0-20.5,8.8-20.5,22.2
		c0,13.8,8.2,22.4,20.5,22.4C750.3,98.6,758.6,89.8,758.6,76.2z"/>
	<path fill-rule="evenodd" fill="#1C74A5" d="M869.2,95.7c-4.2,13.8-16.6,25-35.6,25c-21.3,0-40.2-15.6-40.2-42.3
		c0-25,18.4-41.5,38.3-41.5c24.2,0,38.5,16.1,38.5,41c0,3.1-0.3,5.7-0.5,6h-57.5c0.5,12,9.9,20.6,21.5,20.6c11.3,0,17.1-6,19.7-13.8
		L869.2,95.7z M851.3,70c-0.3-9.2-6.5-17.5-19.4-17.5c-11.8,0-18.6,9.1-19.2,17.5H851.3z"/>
	<polygon fill-rule="evenodd" fill="#1C74A5" points="294.4,77.9 322.4,39.2 301.1,39.2 283.8,63.1 266.6,39.2 244.3,39.2 
		272.7,78.4 243.9,118.2 265.3,118.2 283.4,93.3 301.4,118.2 323.4,118.2 	"/>
</g>
</svg>
